<svg width="28" height="31" viewBox="0 0 28 31" fill="none" xmlns="http://www.w3.org/2000/svg">
<path d="M13.5 13C17.0899 13 20 10.0899 20 6.5C20 2.91015 17.0899 0 13.5 0C9.91014 0 7 2.91015 7 6.5C7 10.0899 9.91014 13 13.5 13Z" fill="#5082E6"/>
<path d="M0 29.8857V31H28V29.8857C28 25.7253 28 23.6452 27.1862 22.0561C26.4704 20.6583 25.3281 19.5218 23.9231 18.8096C22.3259 18 20.235 18 16.0533 18H11.9467C7.76496 18 5.67411 18 4.07687 18.8096C2.67193 19.5218 1.52967 20.6583 0.81382 22.0561C1.66893e-07 23.6452 0 25.7253 0 29.8857Z" fill="#5082E6"/>
</svg>
