<svg width="68" height="70" viewBox="0 0 68 70" fill="none" xmlns="http://www.w3.org/2000/svg">
<path fill-rule="evenodd" clip-rule="evenodd" d="M59.6286 7.46072C57.8811 5.89479 50.8278 0.891689 35.1177 0.823083C35.1177 0.823083 16.5911 -0.267753 7.55904 7.82777C2.53077 12.7382 0.762745 19.9213 0.576005 28.8315C0.390979 37.7452 0.147708 54.4388 16.6271 58.9668L16.6442 58.9736L16.6322 65.8788C16.6322 65.8788 16.5294 68.6779 18.4139 69.2491C20.6942 69.9386 22.0322 67.8152 24.2131 65.5221C25.5995 64.0385 26.9623 62.533 28.3009 61.0061C39.5721 61.9254 48.2375 59.814 49.2243 59.5019C51.4977 58.7781 64.3759 57.1693 66.4711 40.4723C68.6315 23.2573 65.4244 12.3729 59.6286 7.46072Z" fill="white"/>
<path fill-rule="evenodd" clip-rule="evenodd" d="M61.5415 39.2314C59.77 53.1721 49.3314 54.0537 47.4058 54.6557C46.5852 54.913 38.97 56.7637 29.4 56.1548C29.4 56.1548 22.2645 64.559 20.0373 66.7459C19.6895 67.0855 19.2835 67.2227 19.0077 67.1592C18.6239 67.0683 18.5177 66.6224 18.5245 65.9758L18.5828 54.4962V54.4928C4.64585 50.7109 5.4562 36.4991 5.61381 29.0571C5.77314 21.6167 7.20366 15.5194 11.4558 11.4202C19.095 4.66245 34.8326 5.67096 34.8326 5.67096C48.1219 5.72928 54.4916 9.6364 55.9684 10.9451C60.8716 15.0443 63.3678 24.8584 61.5415 39.2314Z" fill="#665CAC"/>
<path fill-rule="evenodd" clip-rule="evenodd" d="M41.5864 29.3121C41.3614 29.3143 41.144 29.23 40.9792 29.0765C40.8144 28.923 40.7147 28.7121 40.7007 28.4871C40.5517 25.5422 39.128 24.1015 36.2309 23.9471C36.1159 23.9427 36.0028 23.9156 35.8982 23.8673C35.7937 23.819 35.6997 23.7505 35.6217 23.6657C35.5437 23.5809 35.4832 23.4815 35.4437 23.3732C35.4042 23.2649 35.3864 23.1499 35.3915 23.0347C35.3989 22.9194 35.4289 22.8068 35.4799 22.7031C35.5308 22.5995 35.6017 22.507 35.6884 22.4308C35.7752 22.3547 35.876 22.2964 35.9853 22.2593C36.0946 22.2223 36.2101 22.2072 36.3252 22.2148C40.1525 22.4155 42.2769 24.556 42.4739 28.4014C42.4785 28.5166 42.4603 28.6315 42.4203 28.7396C42.3804 28.8477 42.3195 28.9469 42.2412 29.0313C42.1629 29.1158 42.0686 29.1839 41.9639 29.2318C41.8592 29.2797 41.7461 29.3064 41.631 29.3104L41.5864 29.3121Z" fill="white"/>
<path fill-rule="evenodd" clip-rule="evenodd" d="M46.1502 30.8045H46.1296C45.8972 30.8022 45.6753 30.7077 45.5124 30.5418C45.3496 30.3759 45.2591 30.1521 45.261 29.9195C45.3295 26.9522 44.4609 24.551 42.6089 22.5752C40.7638 20.6062 38.2334 19.5308 34.8669 19.2907C34.6347 19.2765 34.4177 19.1707 34.2635 18.9963C34.1093 18.822 34.0305 18.5935 34.0446 18.361C34.0659 18.129 34.1777 17.9147 34.3556 17.7645C34.5335 17.6143 34.7634 17.5402 34.9954 17.5583C38.7833 17.8293 41.7866 19.1243 43.9212 21.4037C46.0645 23.69 47.1164 26.568 47.0359 29.9555C47.0274 30.1845 46.9302 30.4012 46.7649 30.5597C46.5995 30.7182 46.3791 30.806 46.1502 30.8045Z" fill="white"/>
<path fill-rule="evenodd" clip-rule="evenodd" d="M50.8146 32.5879C50.5824 32.5911 50.3583 32.5022 50.1914 32.3406C50.0245 32.1789 49.9282 31.9577 49.9237 31.7252C49.8826 26.494 48.2739 22.3262 45.1422 19.3418C42.0053 16.354 38.0392 14.8224 33.3553 14.7915C33.24 14.7924 33.1256 14.7705 33.0188 14.7269C32.912 14.6833 32.8149 14.6191 32.733 14.5377C32.6512 14.4564 32.5862 14.3597 32.5419 14.2531C32.4975 14.1465 32.4747 14.0322 32.4747 13.9168C32.4765 13.8019 32.5009 13.6885 32.5464 13.5831C32.592 13.4776 32.6579 13.3822 32.7403 13.3022C32.8227 13.2223 32.92 13.1594 33.0267 13.1171C33.1334 13.0748 33.2474 13.054 33.3622 13.0558H33.3673C38.5241 13.0901 42.903 14.7881 46.3825 18.0983C49.8655 21.4206 51.6575 26.0017 51.7003 31.7132C51.699 31.946 51.6055 32.1687 51.4405 32.3326C51.2755 32.4966 51.0522 32.5884 50.8197 32.5879H50.8146ZM36.4528 40.066C36.4528 40.066 37.7034 40.1758 38.3716 39.3611L39.6839 37.7505C40.3161 36.9513 41.8425 36.4419 43.3399 37.2531C45.3169 38.3457 47.8747 40.0609 49.6273 41.6594C50.5936 42.4535 50.8197 43.6249 50.1619 44.8633L50.155 44.889C49.425 46.1203 48.5044 47.2277 47.4276 48.1701L47.4019 48.1872C46.1135 49.2369 44.6333 49.8458 43.0503 49.3433L43.0195 49.3021C40.1756 48.5166 33.3502 45.1171 29.0003 41.7297C21.8854 36.2481 16.828 27.2024 15.43 22.3553L15.3855 22.3262C14.8715 20.774 15.5003 19.3281 16.5676 18.0726L16.5882 18.0503C17.5608 16.9895 18.6953 16.0899 19.9495 15.385L19.9752 15.3798C21.2395 14.7366 22.4388 14.9544 23.256 15.8995C24.3301 16.9835 26.3466 19.5905 27.7617 22.0432C28.5943 23.5011 28.0735 24.9967 27.2563 25.6107L25.6065 26.8919C24.7756 27.5488 24.8835 28.77 24.8835 28.77C24.8835 28.77 27.3248 37.7917 36.4528 40.066Z" fill="white"/>
</svg>
