<svg width="63" height="62" viewBox="0 0 63 62" fill="none" xmlns="http://www.w3.org/2000/svg">
<path d="M1.96875 59.7746L6.20484 45.0931C3.48259 40.5898 2.04459 35.4259 2.04695 30.1621C2.04695 13.909 15.5977 0.688477 32.2544 0.688477C48.9125 0.688477 62.4633 13.909 62.4633 30.1621C62.4633 46.4137 48.9125 59.6342 32.2544 59.6342C27.0652 59.6342 21.9821 58.3388 17.4863 55.8778L1.96875 59.7746Z" fill="#33CE52"/>
<path d="M0.535156 61.1544L4.9023 46.0049C2.09564 41.3563 0.613352 36.0274 0.616088 30.5956C0.616088 13.8256 14.5848 0.18042 31.7557 0.18042C48.9265 0.18042 62.8952 13.8241 62.8952 30.5956C62.8952 47.3655 48.9265 61.0107 31.7557 61.0107C26.4051 61.0107 21.1661 59.6731 16.5317 57.1324L0.535156 61.1544ZM17.3502 51.6L18.303 52.1687C22.3743 54.5863 27.0221 55.8586 31.7557 55.8513C46.013 55.8513 57.6134 44.5221 57.6134 30.5956C57.6134 16.669 46.013 5.34133 31.7557 5.34133C17.4983 5.34133 5.89789 16.669 5.89789 30.5956C5.89789 35.4477 7.31034 40.1591 9.98101 44.2224L10.6223 45.1978L8.10741 53.9236L17.3502 51.6Z" fill="white"/>
<path d="M23.7719 16.4594L21.8199 16.356C21.2097 16.3222 20.6096 16.523 20.1423 16.9173C19.195 17.7194 17.6812 19.2704 17.2164 21.2941C16.5229 24.309 17.5956 28.0018 20.368 31.6947C23.1404 35.3876 28.3076 41.2962 37.4452 43.8207C40.3888 44.6331 42.7053 44.0851 44.4921 42.9683C45.1863 42.5326 45.7866 41.9624 46.2576 41.2912C46.7286 40.62 47.0609 39.8614 47.235 39.0598L47.5463 37.6388C47.5935 37.4176 47.5631 37.1869 47.4602 36.9856C47.3572 36.7843 47.188 36.6248 46.9812 36.5339L40.3829 33.5633C40.1751 33.4695 39.942 33.4475 39.7203 33.5007C39.4987 33.5539 39.3009 33.6793 39.1582 33.8573L36.5673 37.1365C36.4703 37.2582 36.3381 37.3468 36.1889 37.3901C36.0396 37.4335 35.8806 37.4296 35.7336 37.3788C33.9601 36.7702 28.0169 34.3388 24.7561 28.2057C24.6865 28.0761 24.6585 27.9282 24.6756 27.7821C24.6928 27.636 24.7543 27.4987 24.852 27.3888L27.3278 24.5911C27.4512 24.4525 27.5322 24.2814 27.5612 24.0981C27.5903 23.9148 27.5661 23.727 27.4916 23.5571L24.6469 17.0576C24.5707 16.8866 24.4485 16.7401 24.294 16.6345C24.1395 16.5289 23.9588 16.4682 23.7719 16.4594Z" fill="white"/>
</svg>
